<mxfile host="app.diagrams.net" agent="Mozilla/5.0 (Macintosh; Intel Mac OS X 10_15_7) AppleWebKit/537.36 (KHTML, like Gecko) Chrome/131.0.0.0 Safari/537.36" version="26.0.10">
  <diagram name="Seite-1" id="o5GDOLq9BP8B21kStGI_">
    <mxGraphModel dx="2601" dy="2107" grid="1" gridSize="10" guides="1" tooltips="1" connect="1" arrows="1" fold="1" page="1" pageScale="1" pageWidth="827" pageHeight="1169" math="0" shadow="0">
      <root>
        <mxCell id="0" />
        <mxCell id="1" parent="0" />
        <mxCell id="XqshrP1MkeQ7JJaybLeK-2" value="&lt;b&gt;&lt;font style=&quot;font-size: 15px;&quot;&gt;Kunde&lt;/font&gt;&lt;/b&gt;" style="ellipse;whiteSpace=wrap;html=1;fillColor=#f8cecc;strokeColor=#b85450;gradientColor=#ea6b66;" parent="1" vertex="1">
          <mxGeometry x="280" y="120" width="120" height="80" as="geometry" />
        </mxCell>
        <mxCell id="XqshrP1MkeQ7JJaybLeK-3" value="&lt;font style=&quot;font-size: 15px;&quot;&gt;&lt;b&gt;tätigt&lt;/b&gt;&lt;/font&gt;" style="rhombus;whiteSpace=wrap;html=1;fillColor=#f8cecc;strokeColor=#b85450;gradientColor=#ea6b66;" parent="1" vertex="1">
          <mxGeometry x="680" y="120" width="120" height="80" as="geometry" />
        </mxCell>
        <mxCell id="XqshrP1MkeQ7JJaybLeK-4" value="&lt;font style=&quot;font-size: 15px;&quot;&gt;&lt;b&gt;Bestellung&lt;/b&gt;&lt;/font&gt;" style="ellipse;whiteSpace=wrap;html=1;fillColor=#f8cecc;strokeColor=#b85450;gradientColor=#ea6b66;" parent="1" vertex="1">
          <mxGeometry x="1073" y="120" width="120" height="80" as="geometry" />
        </mxCell>
        <mxCell id="NQ3JC0b8GoN50iVx1xSi-1" value="&lt;font style=&quot;font-size: 15px;&quot;&gt;&lt;b&gt;Strasse&lt;/b&gt;&lt;/font&gt;" style="rounded=1;whiteSpace=wrap;html=1;fillColor=#d5e8d4;gradientColor=#97d077;strokeColor=#82b366;" parent="1" vertex="1">
          <mxGeometry x="-80" y="80" width="120" height="60" as="geometry" />
        </mxCell>
        <mxCell id="NQ3JC0b8GoN50iVx1xSi-2" value="&lt;font style=&quot;font-size: 15px;&quot;&gt;&lt;b&gt;HausNr&lt;/b&gt;&lt;/font&gt;" style="rounded=1;whiteSpace=wrap;html=1;fillColor=#d5e8d4;gradientColor=#97d077;strokeColor=#82b366;" parent="1" vertex="1">
          <mxGeometry x="80" y="-20" width="120" height="60" as="geometry" />
        </mxCell>
        <mxCell id="NQ3JC0b8GoN50iVx1xSi-3" value="&lt;font style=&quot;font-size: 15px;&quot;&gt;&lt;b&gt;Vorname&lt;/b&gt;&lt;/font&gt;" style="rounded=1;whiteSpace=wrap;html=1;fillColor=#d5e8d4;gradientColor=#97d077;strokeColor=#82b366;" parent="1" vertex="1">
          <mxGeometry x="-80" y="180" width="120" height="60" as="geometry" />
        </mxCell>
        <mxCell id="NQ3JC0b8GoN50iVx1xSi-4" value="&lt;b&gt;&lt;font style=&quot;font-size: 15px;&quot;&gt;Geburtsdatum&lt;/font&gt;&lt;/b&gt;" style="rounded=1;whiteSpace=wrap;html=1;fillColor=#d5e8d4;gradientColor=#97d077;strokeColor=#82b366;" parent="1" vertex="1">
          <mxGeometry x="80" y="280" width="120" height="60" as="geometry" />
        </mxCell>
        <mxCell id="NQ3JC0b8GoN50iVx1xSi-6" value="&lt;font style=&quot;font-size: 15px;&quot;&gt;&lt;b&gt;Name&lt;/b&gt;&lt;/font&gt;" style="rounded=1;whiteSpace=wrap;html=1;fillColor=#d5e8d4;gradientColor=#97d077;strokeColor=#82b366;" parent="1" vertex="1">
          <mxGeometry x="280" y="-20" width="120" height="60" as="geometry" />
        </mxCell>
        <mxCell id="NQ3JC0b8GoN50iVx1xSi-7" value="&lt;font style=&quot;font-size: 15px;&quot;&gt;&lt;b&gt;PLZ&lt;/b&gt;&lt;/font&gt;" style="rounded=1;whiteSpace=wrap;html=1;fillColor=#d5e8d4;gradientColor=#97d077;strokeColor=#82b366;" parent="1" vertex="1">
          <mxGeometry x="280" y="280" width="120" height="60" as="geometry" />
        </mxCell>
        <mxCell id="NQ3JC0b8GoN50iVx1xSi-39" value="" style="strokeWidth=2;html=1;shape=mxgraph.flowchart.annotation_2;align=left;labelPosition=right;pointerEvents=1;direction=west;" parent="1" vertex="1">
          <mxGeometry x="200" y="10" width="80" height="300" as="geometry" />
        </mxCell>
        <mxCell id="NQ3JC0b8GoN50iVx1xSi-40" value="" style="strokeWidth=2;html=1;shape=mxgraph.flowchart.annotation_2;align=left;labelPosition=right;pointerEvents=1;direction=west;" parent="1" vertex="1">
          <mxGeometry x="40" y="110" width="200" height="100" as="geometry" />
        </mxCell>
        <mxCell id="NQ3JC0b8GoN50iVx1xSi-47" value="" style="line;strokeWidth=2;direction=south;html=1;" parent="1" vertex="1">
          <mxGeometry x="335" y="40" width="10" height="80" as="geometry" />
        </mxCell>
        <mxCell id="NQ3JC0b8GoN50iVx1xSi-50" value="" style="line;strokeWidth=2;direction=south;html=1;" parent="1" vertex="1">
          <mxGeometry x="335" y="200" width="10" height="80" as="geometry" />
        </mxCell>
        <mxCell id="NQ3JC0b8GoN50iVx1xSi-51" value="&lt;font style=&quot;font-size: 16px;&quot;&gt;&lt;b style=&quot;&quot;&gt;Stadt&lt;/b&gt;&lt;/font&gt;" style="rounded=1;whiteSpace=wrap;html=1;fillColor=#d5e8d4;gradientColor=#97d077;strokeColor=#82b366;" parent="1" vertex="1">
          <mxGeometry x="480" y="-20" width="120" height="60" as="geometry" />
        </mxCell>
        <mxCell id="NQ3JC0b8GoN50iVx1xSi-52" value="&lt;b&gt;&lt;font style=&quot;font-size: 15px;&quot;&gt;KdNr&lt;/font&gt;&lt;/b&gt;" style="rounded=1;whiteSpace=wrap;html=1;fillColor=#d5e8d4;gradientColor=#97d077;strokeColor=#82b366;" parent="1" vertex="1">
          <mxGeometry x="480" y="280" width="120" height="60" as="geometry" />
        </mxCell>
        <mxCell id="NQ3JC0b8GoN50iVx1xSi-53" value="" style="strokeWidth=2;html=1;shape=mxgraph.flowchart.annotation_2;align=left;labelPosition=right;pointerEvents=1;direction=east;" parent="1" vertex="1">
          <mxGeometry x="400" y="10" width="80" height="300" as="geometry" />
        </mxCell>
        <mxCell id="NQ3JC0b8GoN50iVx1xSi-56" value="&lt;font style=&quot;font-size: 15px;&quot;&gt;1&lt;/font&gt;" style="line;strokeWidth=2;html=1;verticalAlign=middle;" parent="1" vertex="1">
          <mxGeometry x="440" y="155" width="240" height="10" as="geometry" />
        </mxCell>
        <mxCell id="NQ3JC0b8GoN50iVx1xSi-57" value="&lt;font style=&quot;font-size: 15px;&quot;&gt;N&lt;/font&gt;" style="line;strokeWidth=2;html=1;verticalAlign=middle;" parent="1" vertex="1">
          <mxGeometry x="800" y="155" width="273" height="10" as="geometry" />
        </mxCell>
        <mxCell id="NQ3JC0b8GoN50iVx1xSi-58" value="" style="strokeWidth=2;html=1;shape=mxgraph.flowchart.annotation_2;align=left;labelPosition=right;pointerEvents=1;" parent="1" vertex="1">
          <mxGeometry x="1193" y="40" width="120" height="240" as="geometry" />
        </mxCell>
        <mxCell id="NQ3JC0b8GoN50iVx1xSi-59" value="&lt;b&gt;&lt;font style=&quot;font-size: 15px;&quot;&gt;Gesamtpreis&lt;/font&gt;&lt;/b&gt;" style="rounded=1;whiteSpace=wrap;html=1;fillColor=#d5e8d4;gradientColor=#97d077;strokeColor=#82b366;" parent="1" vertex="1">
          <mxGeometry x="1313" y="20" width="120" height="60" as="geometry" />
        </mxCell>
        <mxCell id="NQ3JC0b8GoN50iVx1xSi-60" value="&lt;font style=&quot;font-size: 15px;&quot;&gt;&lt;b&gt;Datum&lt;/b&gt;&lt;/font&gt;" style="rounded=1;whiteSpace=wrap;html=1;fillColor=#d5e8d4;gradientColor=#97d077;strokeColor=#82b366;" parent="1" vertex="1">
          <mxGeometry x="1313" y="130" width="120" height="60" as="geometry" />
        </mxCell>
        <mxCell id="NQ3JC0b8GoN50iVx1xSi-61" value="&lt;font style=&quot;font-size: 15px;&quot;&gt;&lt;b&gt;BestellNr&lt;/b&gt;&lt;/font&gt;" style="rounded=1;whiteSpace=wrap;html=1;fillColor=#d5e8d4;gradientColor=#97d077;strokeColor=#82b366;" parent="1" vertex="1">
          <mxGeometry x="1313" y="240" width="120" height="60" as="geometry" />
        </mxCell>
        <mxCell id="NQ3JC0b8GoN50iVx1xSi-65" value="" style="line;strokeWidth=2;html=1;" parent="1" vertex="1">
          <mxGeometry x="1193" y="155" width="120" height="10" as="geometry" />
        </mxCell>
        <mxCell id="NQ3JC0b8GoN50iVx1xSi-66" value="&lt;font style=&quot;font-size: 15px;&quot;&gt;&lt;b&gt;enhält&lt;/b&gt;&lt;/font&gt;" style="html=1;whiteSpace=wrap;aspect=fixed;shape=isoRectangle;fillColor=#f8cecc;gradientColor=#ea6b66;strokeColor=#b85450;" parent="1" vertex="1">
          <mxGeometry x="1073" y="383" width="120" height="72" as="geometry" />
        </mxCell>
        <mxCell id="NQ3JC0b8GoN50iVx1xSi-67" value="&lt;b&gt;&lt;font style=&quot;font-size: 15px;&quot;&gt;Zutat&lt;/font&gt;&lt;/b&gt;" style="ellipse;whiteSpace=wrap;html=1;fillColor=#f8cecc;gradientColor=#ea6b66;strokeColor=#b85450;" parent="1" vertex="1">
          <mxGeometry x="1073" y="600" width="120" height="80" as="geometry" />
        </mxCell>
        <mxCell id="NQ3JC0b8GoN50iVx1xSi-69" value="&lt;b&gt;&lt;font style=&quot;font-size: 15px;&quot;&gt;enthält&lt;/font&gt;&lt;/b&gt;" style="rhombus;whiteSpace=wrap;html=1;fillColor=#f8cecc;gradientColor=#ea6b66;strokeColor=#b85450;" parent="1" vertex="1">
          <mxGeometry x="1073" y="840" width="120" height="80" as="geometry" />
        </mxCell>
        <mxCell id="NQ3JC0b8GoN50iVx1xSi-75" value="" style="line;strokeWidth=2;html=1;" parent="1" vertex="1">
          <mxGeometry x="983" y="414" width="93" height="10" as="geometry" />
        </mxCell>
        <mxCell id="NQ3JC0b8GoN50iVx1xSi-77" value="&lt;font style=&quot;font-size: 15px;&quot;&gt;N&lt;/font&gt;" style="line;strokeWidth=2;html=1;direction=south;verticalAlign=middle;" parent="1" vertex="1">
          <mxGeometry x="1128" y="200" width="10" height="190" as="geometry" />
        </mxCell>
        <mxCell id="FYPT7SF2u1F6cxZVviKr-1" value="" style="edgeStyle=orthogonalEdgeStyle;rounded=0;orthogonalLoop=1;jettySize=auto;html=1;" parent="1" source="NQ3JC0b8GoN50iVx1xSi-78" target="NQ3JC0b8GoN50iVx1xSi-67" edge="1">
          <mxGeometry relative="1" as="geometry" />
        </mxCell>
        <mxCell id="NQ3JC0b8GoN50iVx1xSi-78" value="&lt;font style=&quot;font-size: 15px;&quot;&gt;M&lt;/font&gt;" style="line;strokeWidth=2;direction=south;html=1;" parent="1" vertex="1">
          <mxGeometry x="1128" y="450" width="10" height="140" as="geometry" />
        </mxCell>
        <mxCell id="NQ3JC0b8GoN50iVx1xSi-79" value="" style="strokeWidth=2;html=1;shape=mxgraph.flowchart.annotation_2;align=left;labelPosition=right;pointerEvents=1;" parent="1" vertex="1">
          <mxGeometry x="1193" y="420" width="160" height="450" as="geometry" />
        </mxCell>
        <mxCell id="NQ3JC0b8GoN50iVx1xSi-80" value="&lt;b&gt;&lt;font style=&quot;font-size: 15px;&quot;&gt;Bestand&lt;/font&gt;&lt;/b&gt;" style="rounded=1;whiteSpace=wrap;html=1;fillColor=#d5e8d4;gradientColor=#97d077;strokeColor=#82b366;" parent="1" vertex="1">
          <mxGeometry x="1313" y="615" width="120" height="60" as="geometry" />
        </mxCell>
        <mxCell id="NQ3JC0b8GoN50iVx1xSi-81" value="&lt;font style=&quot;font-size: 15px;&quot;&gt;&lt;b&gt;Mengeneinheit&lt;/b&gt;&lt;/font&gt;" style="rounded=1;whiteSpace=wrap;html=1;fillColor=#d5e8d4;gradientColor=#97d077;strokeColor=#82b366;" parent="1" vertex="1">
          <mxGeometry x="1313" y="500" width="120" height="60" as="geometry" />
        </mxCell>
        <mxCell id="NQ3JC0b8GoN50iVx1xSi-82" value="&lt;b&gt;&lt;font style=&quot;font-size: 15px;&quot;&gt;Fett Pro Einheit&lt;/font&gt;&lt;/b&gt;" style="rounded=1;whiteSpace=wrap;html=1;fillColor=#d5e8d4;gradientColor=#97d077;strokeColor=#82b366;" parent="1" vertex="1">
          <mxGeometry x="1313" y="740" width="120" height="60" as="geometry" />
        </mxCell>
        <mxCell id="NQ3JC0b8GoN50iVx1xSi-83" value="&lt;b&gt;&lt;font style=&quot;font-size: 15px;&quot;&gt;Zutat-Name&lt;/font&gt;&lt;/b&gt;" style="rounded=1;whiteSpace=wrap;html=1;fillColor=#d5e8d4;gradientColor=#97d077;strokeColor=#82b366;" parent="1" vertex="1">
          <mxGeometry x="1313" y="395" width="120" height="60" as="geometry" />
        </mxCell>
        <mxCell id="NQ3JC0b8GoN50iVx1xSi-84" value="&lt;b&gt;&lt;font style=&quot;font-size: 15px;&quot;&gt;Kohlenhydrate pro Einheit&lt;/font&gt;&lt;/b&gt;" style="rounded=1;whiteSpace=wrap;html=1;fillColor=#d5e8d4;gradientColor=#97d077;strokeColor=#82b366;" parent="1" vertex="1">
          <mxGeometry x="1313" y="840" width="120" height="60" as="geometry" />
        </mxCell>
        <mxCell id="NQ3JC0b8GoN50iVx1xSi-85" value="" style="line;strokeWidth=2;html=1;" parent="1" vertex="1">
          <mxGeometry x="1273" y="525" width="40" height="10" as="geometry" />
        </mxCell>
        <mxCell id="NQ3JC0b8GoN50iVx1xSi-89" value="" style="line;strokeWidth=2;html=1;" parent="1" vertex="1">
          <mxGeometry x="1273" y="765" width="40" height="10" as="geometry" />
        </mxCell>
        <mxCell id="NQ3JC0b8GoN50iVx1xSi-90" value="" style="line;strokeWidth=2;html=1;" parent="1" vertex="1">
          <mxGeometry x="1273" y="640" width="40" height="10" as="geometry" />
        </mxCell>
        <mxCell id="NQ3JC0b8GoN50iVx1xSi-91" value="&lt;font style=&quot;font-size: 15px;&quot;&gt;&lt;b&gt;Rezept&lt;/b&gt;&lt;/font&gt;" style="ellipse;whiteSpace=wrap;html=1;fillColor=#f8cecc;gradientColor=#ea6b66;strokeColor=#b85450;" parent="1" vertex="1">
          <mxGeometry x="1073" y="1040" width="120" height="80" as="geometry" />
        </mxCell>
        <mxCell id="NQ3JC0b8GoN50iVx1xSi-94" value="&lt;font style=&quot;font-size: 15px;&quot;&gt;&lt;b&gt;Portionen&lt;/b&gt;&lt;/font&gt;" style="rounded=1;whiteSpace=wrap;html=1;fillColor=#d5e8d4;gradientColor=#97d077;strokeColor=#82b366;" parent="1" vertex="1">
          <mxGeometry x="1313" y="940" width="120" height="60" as="geometry" />
        </mxCell>
        <mxCell id="NQ3JC0b8GoN50iVx1xSi-95" value="&lt;font style=&quot;font-size: 15px;&quot;&gt;&lt;b&gt;RezeptName&lt;/b&gt;&lt;/font&gt;" style="rounded=1;whiteSpace=wrap;html=1;fillColor=#d5e8d4;gradientColor=#97d077;strokeColor=#82b366;" parent="1" vertex="1">
          <mxGeometry x="1313" y="1049" width="120" height="60" as="geometry" />
        </mxCell>
        <mxCell id="NQ3JC0b8GoN50iVx1xSi-96" value="&lt;b&gt;&lt;font style=&quot;font-size: 15px;&quot;&gt;RezeptNr&lt;/font&gt;&lt;/b&gt;" style="rounded=1;whiteSpace=wrap;html=1;fillColor=#d5e8d4;gradientColor=#97d077;strokeColor=#82b366;" parent="1" vertex="1">
          <mxGeometry x="1313" y="1160" width="120" height="60" as="geometry" />
        </mxCell>
        <mxCell id="NQ3JC0b8GoN50iVx1xSi-97" value="" style="strokeWidth=2;html=1;shape=mxgraph.flowchart.annotation_2;align=left;labelPosition=right;pointerEvents=1;" parent="1" vertex="1">
          <mxGeometry x="1233" y="980" width="80" height="201.25" as="geometry" />
        </mxCell>
        <mxCell id="NQ3JC0b8GoN50iVx1xSi-98" value="" style="line;strokeWidth=2;html=1;" parent="1" vertex="1">
          <mxGeometry x="1193" y="1075.63" width="70" height="10" as="geometry" />
        </mxCell>
        <mxCell id="NQ3JC0b8GoN50iVx1xSi-99" value="" style="line;strokeWidth=2;html=1;" parent="1" vertex="1">
          <mxGeometry x="1273" y="1075.63" width="40" height="10" as="geometry" />
        </mxCell>
        <mxCell id="FYPT7SF2u1F6cxZVviKr-2" value="&lt;font style=&quot;font-size: 15px;&quot;&gt;n&lt;/font&gt;" style="line;strokeWidth=2;direction=south;html=1;align=center;" parent="1" vertex="1">
          <mxGeometry x="1128" y="680" width="10" height="160" as="geometry" />
        </mxCell>
        <mxCell id="FYPT7SF2u1F6cxZVviKr-5" value="" style="strokeWidth=2;html=1;shape=mxgraph.flowchart.annotation_2;align=left;labelPosition=right;pointerEvents=1;direction=west;" parent="1" vertex="1">
          <mxGeometry x="983" y="520" width="90" height="240" as="geometry" />
        </mxCell>
        <mxCell id="FYPT7SF2u1F6cxZVviKr-7" value="&lt;font style=&quot;font-size: 15px;&quot;&gt;n&lt;/font&gt;" style="line;strokeWidth=2;html=1;align=center;verticalAlign=middle;" parent="1" vertex="1">
          <mxGeometry x="800" y="635" width="230" height="10" as="geometry" />
        </mxCell>
        <mxCell id="FYPT7SF2u1F6cxZVviKr-8" value="&lt;b&gt;&lt;font style=&quot;font-size: 15px;&quot;&gt;liefert&lt;/font&gt;&lt;/b&gt;" style="html=1;whiteSpace=wrap;aspect=fixed;shape=isoRectangle;fillColor=#f8cecc;gradientColor=#ea6b66;strokeColor=#b85450;" parent="1" vertex="1">
          <mxGeometry x="680" y="604" width="120" height="72" as="geometry" />
        </mxCell>
        <mxCell id="FYPT7SF2u1F6cxZVviKr-12" value="&lt;b&gt;&lt;font style=&quot;font-size: 15px;&quot;&gt;Menge&lt;/font&gt;&lt;/b&gt;" style="rounded=1;whiteSpace=wrap;html=1;fillColor=#d5e8d4;gradientColor=#97d077;strokeColor=#82b366;" parent="1" vertex="1">
          <mxGeometry x="863" y="389" width="120" height="60" as="geometry" />
        </mxCell>
        <mxCell id="FYPT7SF2u1F6cxZVviKr-13" value="&lt;b&gt;&lt;font style=&quot;font-size: 15px;&quot;&gt;Nettopreis&lt;/font&gt;&lt;/b&gt;" style="rounded=1;whiteSpace=wrap;html=1;fillColor=#d5e8d4;gradientColor=#97d077;strokeColor=#82b366;" parent="1" vertex="1">
          <mxGeometry x="863" y="500" width="120" height="60" as="geometry" />
        </mxCell>
        <mxCell id="FYPT7SF2u1F6cxZVviKr-14" value="&lt;b&gt;&lt;font style=&quot;font-size: 15px;&quot;&gt;Zutat-ID&lt;/font&gt;&lt;/b&gt;" style="rounded=1;whiteSpace=wrap;html=1;fillColor=#d5e8d4;gradientColor=#97d077;strokeColor=#82b366;" parent="1" vertex="1">
          <mxGeometry x="863" y="740" width="120" height="60" as="geometry" />
        </mxCell>
        <mxCell id="FYPT7SF2u1F6cxZVviKr-15" value="&lt;b&gt;&lt;font style=&quot;font-size: 15px;&quot;&gt;Lieferant&lt;/font&gt;&lt;/b&gt;" style="ellipse;whiteSpace=wrap;html=1;fillColor=#f8cecc;gradientColor=#ea6b66;strokeColor=#b85450;" parent="1" vertex="1">
          <mxGeometry x="280" y="600" width="120" height="80" as="geometry" />
        </mxCell>
        <mxCell id="FYPT7SF2u1F6cxZVviKr-16" value="1" style="line;strokeWidth=2;html=1;verticalAlign=middle;" parent="1" vertex="1">
          <mxGeometry x="400" y="635" width="280" height="10" as="geometry" />
        </mxCell>
        <mxCell id="FYPT7SF2u1F6cxZVviKr-17" value="" style="line;strokeWidth=2;direction=south;html=1;" parent="1" vertex="1">
          <mxGeometry x="335" y="510" width="10" height="90" as="geometry" />
        </mxCell>
        <mxCell id="FYPT7SF2u1F6cxZVviKr-18" value="" style="line;strokeWidth=2;direction=south;html=1;" parent="1" vertex="1">
          <mxGeometry x="335" y="680" width="10" height="90" as="geometry" />
        </mxCell>
        <mxCell id="FYPT7SF2u1F6cxZVviKr-19" value="" style="strokeWidth=2;html=1;shape=mxgraph.flowchart.annotation_2;align=left;labelPosition=right;pointerEvents=1;direction=west;" parent="1" vertex="1">
          <mxGeometry x="40" y="510" width="240" height="260" as="geometry" />
        </mxCell>
        <mxCell id="FYPT7SF2u1F6cxZVviKr-20" value="&lt;b&gt;&lt;font style=&quot;font-size: 15px;&quot;&gt;LiefNr&lt;/font&gt;&lt;/b&gt;" style="rounded=1;whiteSpace=wrap;html=1;fillColor=#d5e8d4;gradientColor=#97d077;strokeColor=#82b366;" parent="1" vertex="1">
          <mxGeometry x="-80" y="480" width="120" height="60" as="geometry" />
        </mxCell>
        <mxCell id="FYPT7SF2u1F6cxZVviKr-21" value="&lt;b&gt;&lt;font style=&quot;font-size: 15px;&quot;&gt;Stadt&lt;/font&gt;&lt;/b&gt;" style="rounded=1;whiteSpace=wrap;html=1;fillColor=#d5e8d4;gradientColor=#97d077;strokeColor=#82b366;" parent="1" vertex="1">
          <mxGeometry x="-80" y="610" width="120" height="60" as="geometry" />
        </mxCell>
        <mxCell id="FYPT7SF2u1F6cxZVviKr-22" value="&lt;b&gt;&lt;font style=&quot;font-size: 15px;&quot;&gt;Name&lt;/font&gt;&lt;/b&gt;" style="rounded=1;whiteSpace=wrap;html=1;fillColor=#d5e8d4;gradientColor=#97d077;strokeColor=#82b366;" parent="1" vertex="1">
          <mxGeometry x="-80" y="740" width="120" height="60" as="geometry" />
        </mxCell>
        <mxCell id="FYPT7SF2u1F6cxZVviKr-23" value="" style="line;strokeWidth=2;html=1;" parent="1" vertex="1">
          <mxGeometry x="40" y="635" width="160" height="10" as="geometry" />
        </mxCell>
        <mxCell id="FYPT7SF2u1F6cxZVviKr-25" value="&lt;b&gt;&lt;font style=&quot;font-size: 15px;&quot;&gt;Strasse&lt;/font&gt;&lt;/b&gt;" style="rounded=1;whiteSpace=wrap;html=1;fillColor=#d5e8d4;gradientColor=#97d077;strokeColor=#82b366;" parent="1" vertex="1">
          <mxGeometry x="280" y="480" width="120" height="60" as="geometry" />
        </mxCell>
        <mxCell id="FYPT7SF2u1F6cxZVviKr-26" value="&lt;font style=&quot;font-size: 15px;&quot;&gt;&lt;b&gt;PLZ&lt;/b&gt;&lt;/font&gt;" style="rounded=1;whiteSpace=wrap;html=1;fillColor=#d5e8d4;gradientColor=#97d077;strokeColor=#82b366;" parent="1" vertex="1">
          <mxGeometry x="280" y="740" width="120" height="60" as="geometry" />
        </mxCell>
        <mxCell id="FYPT7SF2u1F6cxZVviKr-27" value="" style="shape=partialRectangle;whiteSpace=wrap;html=1;bottom=0;right=0;fillColor=none;direction=south;strokeWidth=2;" parent="1" vertex="1">
          <mxGeometry x="440" y="700" width="160" height="80" as="geometry" />
        </mxCell>
        <mxCell id="FYPT7SF2u1F6cxZVviKr-28" value="&lt;b&gt;&lt;font style=&quot;font-size: 15px;&quot;&gt;HausNr&lt;/font&gt;&lt;/b&gt;" style="rounded=1;whiteSpace=wrap;html=1;fillColor=#d5e8d4;gradientColor=#97d077;strokeColor=#82b366;" parent="1" vertex="1">
          <mxGeometry x="540" y="740" width="120" height="60" as="geometry" />
        </mxCell>
        <mxCell id="FYPT7SF2u1F6cxZVviKr-31" value="" style="line;strokeWidth=2;direction=south;html=1;" parent="1" vertex="1">
          <mxGeometry x="435" y="640" width="10" height="60" as="geometry" />
        </mxCell>
        <mxCell id="FYPT7SF2u1F6cxZVviKr-34" value="" style="line;strokeWidth=2;html=1;" parent="1" vertex="1">
          <mxGeometry x="980" y="875" width="50" height="10" as="geometry" />
        </mxCell>
        <mxCell id="FYPT7SF2u1F6cxZVviKr-35" value="" style="line;strokeWidth=2;direction=south;html=1;" parent="1" vertex="1">
          <mxGeometry x="1023" y="760" width="10" height="120" as="geometry" />
        </mxCell>
        <mxCell id="FYPT7SF2u1F6cxZVviKr-36" value="&lt;font style=&quot;font-size: 15px;&quot;&gt;&lt;b&gt;Kalorien pro Einheit&lt;/b&gt;&lt;/font&gt;" style="rounded=1;whiteSpace=wrap;html=1;fillColor=#d5e8d4;gradientColor=#97d077;strokeColor=#82b366;" parent="1" vertex="1">
          <mxGeometry x="864.5" y="840" width="120" height="60" as="geometry" />
        </mxCell>
        <mxCell id="FYPT7SF2u1F6cxZVviKr-37" value="" style="line;strokeWidth=2;direction=south;html=1;" parent="1" vertex="1">
          <mxGeometry x="1128" y="920" width="10" height="120" as="geometry" />
        </mxCell>
        <mxCell id="FYPT7SF2u1F6cxZVviKr-38" value="" style="line;strokeWidth=2;html=1;" parent="1" vertex="1">
          <mxGeometry x="1030" y="1075" width="43" height="10" as="geometry" />
        </mxCell>
        <mxCell id="FYPT7SF2u1F6cxZVviKr-40" value="&lt;b&gt;&lt;font style=&quot;font-size: 15px;&quot;&gt;Zubereitung&lt;/font&gt;&lt;/b&gt;" style="rounded=1;whiteSpace=wrap;html=1;fillColor=#d5e8d4;gradientColor=#97d077;strokeColor=#82b366;" parent="1" vertex="1">
          <mxGeometry x="864.5" y="940" width="120" height="60" as="geometry" />
        </mxCell>
        <mxCell id="FYPT7SF2u1F6cxZVviKr-43" value="" style="shape=partialRectangle;whiteSpace=wrap;html=1;bottom=0;right=0;fillColor=none;direction=south;strokeWidth=2;" parent="1" vertex="1">
          <mxGeometry x="984.5" y="970" width="45.5" height="110" as="geometry" />
        </mxCell>
        <mxCell id="FYPT7SF2u1F6cxZVviKr-45" value="&lt;b&gt;&lt;font style=&quot;font-size: 15px;&quot;&gt;enthält&lt;/font&gt;&lt;/b&gt;" style="html=1;whiteSpace=wrap;aspect=fixed;shape=isoRectangle;fillColor=#f8cecc;gradientColor=#ea6b66;strokeColor=#b85450;" parent="1" vertex="1">
          <mxGeometry x="680" y="1042" width="130" height="78" as="geometry" />
        </mxCell>
        <mxCell id="FYPT7SF2u1F6cxZVviKr-46" value="&lt;font style=&quot;font-size: 15px;&quot;&gt;m&lt;/font&gt;" style="line;strokeWidth=2;html=1;verticalAlign=middle;" parent="1" vertex="1">
          <mxGeometry x="810" y="1075" width="220" height="10" as="geometry" />
        </mxCell>
        <mxCell id="FYPT7SF2u1F6cxZVviKr-47" value="&lt;b&gt;&lt;font style=&quot;font-size: 15px;&quot;&gt;Ernährungskategorie&lt;/font&gt;&lt;/b&gt;" style="ellipse;whiteSpace=wrap;html=1;fillColor=#f8cecc;gradientColor=#ea6b66;strokeColor=#b85450;" parent="1" vertex="1">
          <mxGeometry x="260" y="1039" width="160" height="80" as="geometry" />
        </mxCell>
        <mxCell id="coLPFZifWrVzm07zTkoy-1" value="&lt;font style=&quot;font-size: 15px;&quot;&gt;n&lt;/font&gt;" style="line;strokeWidth=2;html=1;verticalAlign=middle;" parent="1" vertex="1">
          <mxGeometry x="420" y="1076" width="260" height="10" as="geometry" />
        </mxCell>
        <mxCell id="coLPFZifWrVzm07zTkoy-2" value="&lt;b&gt;&lt;font style=&quot;font-size: 15px;&quot;&gt;Kategorie&lt;/font&gt;&lt;/b&gt;" style="rounded=1;whiteSpace=wrap;html=1;fillColor=#d5e8d4;gradientColor=#97d077;strokeColor=#82b366;" parent="1" vertex="1">
          <mxGeometry x="280" y="1160" width="120" height="60" as="geometry" />
        </mxCell>
        <mxCell id="coLPFZifWrVzm07zTkoy-3" value="&lt;font style=&quot;font-size: 15px;&quot;&gt;&lt;b&gt;Beschreibung&lt;/b&gt;&lt;/font&gt;" style="rounded=1;whiteSpace=wrap;html=1;fillColor=#d5e8d4;gradientColor=#97d077;strokeColor=#82b366;" parent="1" vertex="1">
          <mxGeometry x="80" y="1051" width="120" height="60" as="geometry" />
        </mxCell>
        <mxCell id="coLPFZifWrVzm07zTkoy-4" value="&lt;font style=&quot;font-size: 15px;&quot;&gt;&lt;b&gt;KategorieNr&lt;/b&gt;&lt;/font&gt;" style="rounded=1;whiteSpace=wrap;html=1;fillColor=#d5e8d4;gradientColor=#97d077;strokeColor=#82b366;" parent="1" vertex="1">
          <mxGeometry x="280" y="940" width="120" height="60" as="geometry" />
        </mxCell>
        <mxCell id="coLPFZifWrVzm07zTkoy-5" value="" style="line;strokeWidth=2;html=1;" parent="1" vertex="1">
          <mxGeometry x="200" y="1075" width="60" height="10" as="geometry" />
        </mxCell>
        <mxCell id="coLPFZifWrVzm07zTkoy-6" value="" style="line;strokeWidth=2;direction=south;html=1;" parent="1" vertex="1">
          <mxGeometry x="335" y="1120" width="10" height="40" as="geometry" />
        </mxCell>
        <mxCell id="coLPFZifWrVzm07zTkoy-7" value="" style="line;strokeWidth=2;direction=south;html=1;" parent="1" vertex="1">
          <mxGeometry x="335" y="1000" width="10" height="40" as="geometry" />
        </mxCell>
        <mxCell id="coLPFZifWrVzm07zTkoy-8" value="&lt;font style=&quot;font-size: 15px;&quot;&gt;n&lt;/font&gt;" style="line;strokeWidth=2;direction=south;html=1;verticalAlign=middle;" parent="1" vertex="1">
          <mxGeometry x="1130" y="1120" width="10" height="160" as="geometry" />
        </mxCell>
        <mxCell id="coLPFZifWrVzm07zTkoy-9" value="&lt;b&gt;&lt;font style=&quot;font-size: 15px;&quot;&gt;enthält&lt;/font&gt;&lt;/b&gt;" style="html=1;whiteSpace=wrap;aspect=fixed;shape=isoRectangle;fillColor=#f8cecc;gradientColor=#ea6b66;strokeColor=#b85450;" parent="1" vertex="1">
          <mxGeometry x="1068.35" y="1240" width="133.33" height="80" as="geometry" />
        </mxCell>
        <mxCell id="coLPFZifWrVzm07zTkoy-10" value="&lt;font style=&quot;font-size: 15px;&quot;&gt;m&lt;/font&gt;" style="line;strokeWidth=2;direction=south;html=1;verticalAlign=middle;" parent="1" vertex="1">
          <mxGeometry x="1130.02" y="1320" width="10" height="120" as="geometry" />
        </mxCell>
        <mxCell id="coLPFZifWrVzm07zTkoy-11" value="&lt;b&gt;&lt;font style=&quot;font-size: 15px;&quot;&gt;Allergene&lt;/font&gt;&lt;/b&gt;" style="ellipse;whiteSpace=wrap;html=1;fillColor=#f8cecc;gradientColor=#ea6b66;strokeColor=#b85450;" parent="1" vertex="1">
          <mxGeometry x="1075" y="1440" width="120" height="80" as="geometry" />
        </mxCell>
        <mxCell id="coLPFZifWrVzm07zTkoy-12" value="" style="line;strokeWidth=2;html=1;" parent="1" vertex="1">
          <mxGeometry x="913" y="1475" width="160" height="10" as="geometry" />
        </mxCell>
        <mxCell id="coLPFZifWrVzm07zTkoy-13" value="" style="line;strokeWidth=2;html=1;" parent="1" vertex="1">
          <mxGeometry x="1195" y="1475" width="160" height="10" as="geometry" />
        </mxCell>
        <mxCell id="coLPFZifWrVzm07zTkoy-14" value="&lt;b&gt;&lt;font style=&quot;font-size: 15px;&quot;&gt;Allergen&lt;/font&gt;&lt;/b&gt;" style="rounded=1;whiteSpace=wrap;html=1;fillColor=#d5e8d4;gradientColor=#97d077;strokeColor=#82b366;" parent="1" vertex="1">
          <mxGeometry x="864.5" y="1450" width="120" height="60" as="geometry" />
        </mxCell>
        <mxCell id="coLPFZifWrVzm07zTkoy-15" value="&lt;b&gt;&lt;font style=&quot;font-size: 15px;&quot;&gt;AllergenNr&lt;/font&gt;&lt;/b&gt;" style="rounded=1;whiteSpace=wrap;html=1;fillColor=#d5e8d4;gradientColor=#97d077;strokeColor=#82b366;" parent="1" vertex="1">
          <mxGeometry x="1313" y="1450" width="120" height="60" as="geometry" />
        </mxCell>
      </root>
    </mxGraphModel>
  </diagram>
</mxfile>
